<mxfile host="app.diagrams.net" modified="2024-06-21T03:52:16.225Z" agent="Mozilla/5.0 (X11; Linux x86_64; rv:126.0) Gecko/20100101 Firefox/126.0" etag="-vl8TEg64PCMOo6bmI8h" version="24.6.0" type="device">
  <diagram name="Page-1" id="oGC6PIoGpdY5dUBz3tll">
    <mxGraphModel dx="1274" dy="738" grid="1" gridSize="10" guides="1" tooltips="1" connect="1" arrows="1" fold="1" page="1" pageScale="1" pageWidth="850" pageHeight="1100" math="0" shadow="0">
      <root>
        <mxCell id="0" />
        <mxCell id="1" parent="0" />
        <mxCell id="0432-ws2thhd6J4fnqmS-1" value="" style="rounded=1;whiteSpace=wrap;html=1;" vertex="1" parent="1">
          <mxGeometry x="360" y="360" width="120" height="60" as="geometry" />
        </mxCell>
      </root>
    </mxGraphModel>
  </diagram>
</mxfile>
